<svg xmlns="http://www.w3.org/2000/svg" xmlns:xlink="http://www.w3.org/1999/xlink" width="192.286" height="136.825" viewBox="0 0 192.286 136.825">
  <defs>
    <linearGradient id="linear-gradient" y1="0.5" x2="1" y2="0.5" gradientUnits="objectBoundingBox">
      <stop offset="0.011" stop-color="#a5e608"/>
      <stop offset="1" stop-color="#5c8200"/>
    </linearGradient>
    <linearGradient id="linear-gradient-4" x1="0.5" y1="0.012" x2="0.5" y2="1.026" gradientUnits="objectBoundingBox">
      <stop offset="0" stop-color="#00d3f3"/>
      <stop offset="1" stop-color="#009ba6"/>
    </linearGradient>
    <linearGradient id="linear-gradient-6" x1="0" y1="0.5" x2="1" y2="0.5" xlink:href="#linear-gradient-4"/>
    <filter id="Path_389" x="78.167" y="24.006" width="43.617" height="39.791" filterUnits="userSpaceOnUse">
      <feOffset dx="2.633" dy="1.975" input="SourceAlpha"/>
      <feGaussianBlur stdDeviation="0.329" result="blur"/>
      <feFlood flood-opacity="0.2"/>
      <feComposite operator="in" in2="blur"/>
      <feComposite in="SourceGraphic"/>
    </filter>
    <filter id="Path_391" x="107.71" y="15.326" width="11.184" height="10.337" filterUnits="userSpaceOnUse">
      <feOffset dx="2.633" dy="1.975" input="SourceAlpha"/>
      <feGaussianBlur stdDeviation="0.329" result="blur-2"/>
      <feFlood flood-opacity="0.2"/>
      <feComposite operator="in" in2="blur-2"/>
      <feComposite in="SourceGraphic"/>
    </filter>
    <linearGradient id="linear-gradient-7" x1="0.5" y1="0.407" x2="0.5" y2="0.881" xlink:href="#linear-gradient"/>
    <linearGradient id="linear-gradient-8" x1="0.5" y1="0.017" x2="0.5" y2="0.997" xlink:href="#linear-gradient-4"/>
    <linearGradient id="linear-gradient-9" x1="0.5" y1="1.192" x2="0.5" y2="-0.015" xlink:href="#linear-gradient-4"/>
    <linearGradient id="linear-gradient-10" x1="0.5" y1="1.024" x2="0.5" y2="-0.013" xlink:href="#linear-gradient-4"/>
    <linearGradient id="linear-gradient-11" x1="0.5" y1="1.194" x2="0.5" y2="-0.015" xlink:href="#linear-gradient-4"/>
    <linearGradient id="linear-gradient-12" x1="0.5" y1="1.029" x2="0.5" y2="-0.203" xlink:href="#linear-gradient-4"/>
    <linearGradient id="linear-gradient-13" x1="0.5" y1="0.232" x2="0.5" y2="0.821" xlink:href="#linear-gradient"/>
    <linearGradient id="linear-gradient-14" x1="0.5" y1="0.235" x2="0.5" y2="0.846" xlink:href="#linear-gradient"/>
    <linearGradient id="linear-gradient-15" x1="0.5" y1="0.397" x2="0.5" y2="0.86" xlink:href="#linear-gradient"/>
    <linearGradient id="linear-gradient-16" x1="0.482" y1="0.777" x2="0.469" y2="0.977" xlink:href="#linear-gradient-4"/>
    <linearGradient id="linear-gradient-17" x1="0.466" y1="0.548" x2="0.453" y2="0.748" xlink:href="#linear-gradient-4"/>
    <linearGradient id="linear-gradient-18" x1="0.5" y1="-0.022" x2="0.5" y2="0.999" xlink:href="#linear-gradient"/>
    <linearGradient id="linear-gradient-19" x1="0.5" y1="3.139" x2="0.5" y2="-0.428" xlink:href="#linear-gradient"/>
    <linearGradient id="linear-gradient-20" x1="0.5" y1="5.715" x2="0.5" y2="-6.008" xlink:href="#linear-gradient"/>
    <linearGradient id="linear-gradient-21" x1="0.5" y1="1.013" x2="0.5" y2="0.027" xlink:href="#linear-gradient"/>
    <linearGradient id="linear-gradient-22" x1="0.5" y1="1.031" x2="0.5" y2="-1.368" xlink:href="#linear-gradient"/>
    <linearGradient id="linear-gradient-24" x1="0.5" y1="1.39" x2="0.5" y2="0.037" xlink:href="#linear-gradient"/>
    <linearGradient id="linear-gradient-26" x1="0.5" y1="1.016" x2="0.5" y2="-0.25" xlink:href="#linear-gradient"/>
    <linearGradient id="linear-gradient-27" x1="0.5" y1="-0.022" x2="0.5" y2="0.999" xlink:href="#linear-gradient"/>
    <linearGradient id="linear-gradient-29" x1="0.5" y1="0.017" x2="0.5" y2="0.997" gradientUnits="objectBoundingBox">
      <stop offset="0" stop-color="#5c8200"/>
      <stop offset="1" stop-color="#a5e608"/>
    </linearGradient>
    <linearGradient id="linear-gradient-30" x1="0.5" y1="1.024" x2="0.5" y2="-0.013" xlink:href="#linear-gradient-4"/>
    <linearGradient id="linear-gradient-32" x1="0.5" y1="1.024" x2="0.5" y2="-0.013" gradientUnits="objectBoundingBox">
      <stop offset="0" stop-color="#009ba6"/>
      <stop offset="1" stop-color="#00d3f3"/>
    </linearGradient>
    <linearGradient id="linear-gradient-34" x1="0.399" y1="-0.012" x2="0.539" y2="1.036" xlink:href="#linear-gradient-29"/>
    <linearGradient id="linear-gradient-35" x1="0.5" y1="0.017" x2="0.5" y2="0.997" gradientUnits="objectBoundingBox">
      <stop offset="0" stop-color="#5c8200"/>
      <stop offset="0.17" stop-color="#a5e608"/>
    </linearGradient>
    <linearGradient id="linear-gradient-36" x1="0.5" y1="0.232" x2="0.5" y2="0.821" xlink:href="#linear-gradient-29"/>
    <linearGradient id="linear-gradient-37" x1="193.674" y1="150.862" x2="193.674" y2="151.862" xlink:href="#linear-gradient"/>
    <linearGradient id="linear-gradient-38" x1="0.5" y1="1.171" x2="0.5" y2="-12.163" xlink:href="#linear-gradient"/>
  </defs>
  <g id="Group_1016" data-name="Group 1016" transform="translate(-51.828 -108.987)">
    <g id="Group_1011" data-name="Group 1011" transform="translate(90.016 108.987)">
      <g id="Group_1005" data-name="Group 1005" transform="translate(0 1.99)">
        <g id="Group_1004" data-name="Group 1004">
          <g id="Group_1002" data-name="Group 1002" transform="translate(0 4.151)">
            <g id="Group_1000" data-name="Group 1000">
              <path id="Path_382" data-name="Path 382" d="M135.521,166.485a4.975,4.975,0,0,1-2.55-9.248c2.409-1.435,59.461-35.144,99.956-35.592h.056a4.974,4.974,0,0,1,.054,9.948c-37.808.419-94.408,33.854-94.975,34.192A4.954,4.954,0,0,1,135.521,166.485Z" transform="translate(-130.542 -121.645)" fill="url(#linear-gradient)"/>
            </g>
            <g id="Group_1001" data-name="Group 1001" transform="translate(11.139 0.013)">
              <path id="Path_383" data-name="Path 383" d="M158.476,190.046a4.974,4.974,0,0,1-3.544-8.464c1.967-2,48.63-49.049,87.692-59.733a4.974,4.974,0,0,1,2.624,9.6c-36.471,9.975-82.766,56.647-83.229,57.117A4.957,4.957,0,0,1,158.476,190.046Z" transform="translate(-153.502 -121.673)" fill="url(#linear-gradient)"/>
            </g>
          </g>
          <g id="Group_1003" data-name="Group 1003" transform="translate(98.606)">
            <path id="Path_384" data-name="Path 384" d="M351.094,119.675l-17.3-6.586,2.948,18.279,14.356-11.693-17.3-6.586,2.948,18.279Z" transform="translate(-333.79 -113.088)" fill="url(#linear-gradient)"/>
          </g>
        </g>
      </g>
      <g id="Group_1006" data-name="Group 1006" transform="translate(24.947)" style="mix-blend-mode: hard-light;isolation: isolate">
        <path id="Path_385" data-name="Path 385" d="M255.412,158.02c-1.7-2.778-3.442-5.529-5.192-8.275a3.343,3.343,0,0,1-.645-3.064c1.534-4.107.933-8.212.038-12.314a40.114,40.114,0,0,0-3.7-10.133,23.951,23.951,0,0,0-12.561-11.551,47.779,47.779,0,0,0-30.89-2.023c-11.769,3.2-19.2,12.419-20.339,24.573-.742,7.916,1.179,15.244,4.854,22.2q1.52,2.877,2.912,5.821a23.645,23.645,0,0,1,1.227,17.153c-.821,2.88-1.594,5.775-2.355,8.673a4.877,4.877,0,0,0,4.718,6.114h31.1a4.889,4.889,0,0,0,4.793-3.975l.008-.04c.523-2.7,1.513-3.549,4.265-3.558,1.551,0,3.1.225,4.652.265a25.1,25.1,0,0,0,4.554-.081c4.132-.655,5.849-3.714,4.669-8.135-.047-.175-.108-.346-.165-.517a3.436,3.436,0,0,1,.853-3.742c.184-.189.373-.375.55-.571a1.875,1.875,0,0,0,.191-2.691c-.127-.19-.242-.388-.359-.576,1.949-1.591,1.949-1.591,1.1-3.969a2.315,2.315,0,0,1,1.629-3.365c.8-.278,1.633-.493,2.406-.838C256.2,162.29,256.826,160.333,255.412,158.02Z" transform="translate(-181.962 -108.987)" fill="url(#linear-gradient-4)"/>
      </g>
      <g id="Group_1007" data-name="Group 1007" transform="translate(24.947)" style="mix-blend-mode: hard-light;isolation: isolate">
        <path id="Path_386" data-name="Path 386" d="M255.412,158.02c-1.7-2.778-3.442-5.529-5.192-8.275a3.343,3.343,0,0,1-.645-3.064c1.534-4.107.933-8.212.038-12.314a40.114,40.114,0,0,0-3.7-10.133,23.951,23.951,0,0,0-12.561-11.551,47.779,47.779,0,0,0-30.89-2.023c-11.769,3.2-19.2,12.419-20.339,24.573-.742,7.916,1.179,15.244,4.854,22.2q1.52,2.877,2.912,5.821a23.645,23.645,0,0,1,1.227,17.153c-.821,2.88-1.594,5.775-2.355,8.673a4.877,4.877,0,0,0,4.718,6.114h31.1a4.889,4.889,0,0,0,4.793-3.975l.008-.04c.523-2.7,1.513-3.549,4.265-3.558,1.551,0,3.1.225,4.652.265a25.1,25.1,0,0,0,4.554-.081c4.132-.655,5.849-3.714,4.669-8.135-.047-.175-.108-.346-.165-.517a3.436,3.436,0,0,1,.853-3.742c.184-.189.373-.375.55-.571a1.875,1.875,0,0,0,.191-2.691c-.127-.19-.242-.388-.359-.576,1.949-1.591,1.949-1.591,1.1-3.969a2.315,2.315,0,0,1,1.629-3.365c.8-.278,1.633-.493,2.406-.838C256.2,162.29,256.826,160.333,255.412,158.02Z" transform="translate(-181.962 -108.987)" fill="url(#linear-gradient-4)"/>
      </g>
      <g id="Group_1008" data-name="Group 1008" transform="translate(24.947 0.66)" style="mix-blend-mode: multiply;isolation: isolate">
        <path id="Path_387" data-name="Path 387" d="M196.783,195.208a4.876,4.876,0,0,1-4.718-6.113c.761-2.9,1.534-5.793,2.355-8.673a23.645,23.645,0,0,0-1.227-17.153q-1.39-2.942-2.912-5.821c-3.675-6.953-5.6-14.281-4.854-22.2,1.14-12.154,8.57-21.369,20.339-24.573.432-.117.864-.227,1.3-.331q-2.3.39-4.6,1.014c-11.769,3.2-19.2,12.419-20.339,24.573-.742,7.916,1.179,15.244,4.854,22.2q1.52,2.877,2.912,5.821a23.645,23.645,0,0,1,1.227,17.153c-.821,2.88-1.594,5.775-2.355,8.673a4.877,4.877,0,0,0,4.718,6.114h31.1a4.841,4.841,0,0,0,2.48-.683Z" transform="translate(-181.962 -110.346)" fill="url(#linear-gradient-6)"/>
      </g>
      <path id="Path_388" data-name="Path 388" d="M233.025,160.077c-1.018,0-1.923-.016-2.826.015a.766.766,0,0,0-.481.321q-2.557,3.479-5.092,6.975c-.817,1.121-1.773,1.4-2.669.781a2.342,2.342,0,0,1-.585-3.2c.817-1.165,1.671-2.3,2.51-3.454,1.153-1.581,2.326-3.149,3.45-4.75a2.4,2.4,0,0,1,2.172-1.181c2.7.049,5.407.043,8.11.008a2.785,2.785,0,0,1,2.313,1.092c1.652,1.972,3.323,3.929,4.986,5.891.082.1.172.188.291.318.466-.523.922-1.02,1.362-1.532q1.519-1.766,3.025-3.544a1.719,1.719,0,0,1,2.922.2,2.513,2.513,0,0,1-.194,2.822q-2.682,3.164-5.377,6.319a4.2,4.2,0,0,1-.625.606,1.767,1.767,0,0,1-2.59-.28c-1.025-1.167-2.022-2.358-3.031-3.539-.072-.084-.15-.164-.28-.306l-5.3,7.084c.622.721,1.225,1.432,1.842,2.131.984,1.116,1.994,2.21,2.961,3.34a2.778,2.778,0,0,1,.615,2.326c-.371,2.184-.785,4.361-1.211,6.536-.533,2.714-1.094,5.423-1.648,8.133a2.3,2.3,0,1,1-4.518-.856c.231-1.469.556-2.923.833-4.384.434-2.288.866-4.576,1.283-6.867a.638.638,0,0,0-.138-.475q-2.577-2.84-5.177-5.657c-.018-.02-.057-.022-.122-.046-.783,1.013-1.574,2.033-2.361,3.056-.739.962-1.459,1.938-2.214,2.887a3.207,3.207,0,0,1-2.532,1.132c-1.359.052-2.719.071-4.078.093q-2.986.048-5.972.078a2.563,2.563,0,0,1-2.5-1.918,2.663,2.663,0,0,1,1.211-3.223,3.316,3.316,0,0,1,1.359-.26c2.525-.045,5.05-.061,7.575-.068a.991.991,0,0,0,.9-.436q5.757-7.873,11.532-15.733C232.83,160.418,232.887,160.3,233.025,160.077Z" transform="translate(-171.484 -132.979)" fill="#fff"/>
      <g transform="matrix(1, 0, 0, 1, -38.19, 0)" filter="url(#Path_389)">
        <path id="Path_389-2" data-name="Path 389" d="M236.906,195.3a.839.839,0,0,1-.637-.3,1.173,1.173,0,0,1-.242-.95c.148-.941.342-1.906.53-2.839.1-.5.2-1,.3-1.5.417-2.2.86-4.544,1.284-6.877a2.022,2.022,0,0,0-.478-1.665c-1.558-1.717-3.152-3.452-4.693-5.13l-.49-.533a1.478,1.478,0,0,0-.7-.423,1.4,1.4,0,0,0-1.559.467l-.718.928q-.822,1.062-1.646,2.131-.394.513-.784,1.03c-.461.608-.937,1.237-1.415,1.838a1.777,1.777,0,0,1-1.493.606c-1.238.048-2.505.067-3.732.087l-.315.005c-2.412.039-4.25.063-5.962.078a1.167,1.167,0,0,1-1.131-.862c-.151-.6-.109-1.345.467-1.625a1.95,1.95,0,0,1,.773-.119c2.2-.039,4.527-.06,7.554-.068a2.385,2.385,0,0,0,2.021-1.008q4.249-5.81,8.51-11.613l3.022-4.12a3.725,3.725,0,0,0,.226-.357c.031-.052.066-.114.112-.19a1.4,1.4,0,0,0-1.2-2.12l-.773,0-.718,0c-.558,0-.985.006-1.384.02a2.134,2.134,0,0,0-1.559.89q-1.976,2.689-3.937,5.39l-1.158,1.589c-.32.439-.546.528-.589.528a.369.369,0,0,1-.156-.075.908.908,0,0,1-.358-.592.874.874,0,0,1,.123-.652c.562-.8,1.158-1.611,1.733-2.394q.381-.519.762-1.039.506-.694,1.016-1.387c.809-1.1,1.646-2.24,2.449-3.383.353-.5.584-.587.967-.587h.035c1.333.024,2.689.036,4.144.036,1.273,0,2.584-.009,4.01-.028h.03a1.393,1.393,0,0,1,1.193.591c1.226,1.463,2.481,2.94,3.694,4.369l1.3,1.528c.068.081.139.158.223.247l.1.112a1.4,1.4,0,0,0,1.029.452h.011a1.4,1.4,0,0,0,1.033-.468q.217-.245.431-.482c.322-.358.638-.71.946-1.068,1.036-1.2,2.056-2.4,3.032-3.552a.531.531,0,0,1,.344-.224c.1,0,.224.1.328.27a1.125,1.125,0,0,1-.077,1.174c-1.788,2.109-3.6,4.233-5.374,6.314a2.8,2.8,0,0,1-.411.4.632.632,0,0,1-.328.153.611.611,0,0,1-.362-.245c-.7-.794-1.4-1.617-2.073-2.414q-.472-.556-.946-1.111c-.058-.068-.119-.135-.2-.222l-.112-.121a1.4,1.4,0,0,0-1.03-.453h-.07a1.4,1.4,0,0,0-1.049.559l-5.3,7.084a1.4,1.4,0,0,0,.062,1.75l.576.669c.426.5.848.988,1.276,1.473.369.419.742.834,1.115,1.25.608.677,1.236,1.378,1.832,2.075a1.382,1.382,0,0,1,.3,1.183c-.319,1.876-.69,3.881-1.205,6.5-.419,2.136-.864,4.307-1.294,6.407l-.351,1.716a1.041,1.041,0,0,1-.861.895Z" transform="translate(-134.78 -134.46)" fill="#fff"/>
      </g>
      <g id="Group_1009" data-name="Group 1009" transform="translate(68.124 13.928)">
        <path id="Path_390" data-name="Path 390" d="M281.315,142.924a5.082,5.082,0,0,1-5.334,4.936,5.084,5.084,0,1,1,5.334-4.936Z" transform="translate(-270.959 -137.696)" fill="#fff"/>
        <g transform="matrix(1, 0, 0, 1, -106.31, -13.93)" filter="url(#Path_391)">
          <path id="Path_391-2" data-name="Path 391" d="M277.7,147.951c-.057,0-.115,0-.172,0a3.9,3.9,0,0,1-2.68-1.213,3.569,3.569,0,0,1-1-2.625,3.738,3.738,0,0,1,3.785-3.533l.144,0a3.844,3.844,0,0,1,2.659,1.228,3.525,3.525,0,0,1,.969,2.544A3.674,3.674,0,0,1,277.7,147.951Z" transform="translate(-166.13 -125.25)" fill="#fff"/>
        </g>
      </g>
      <g id="Group_1010" data-name="Group 1010" transform="translate(78.308 77.383)">
        <path id="Path_392" data-name="Path 392" d="M299.4,268.753c-1.539-.04-3.076-.267-4.614-.263a4.617,4.617,0,0,0-2.834.684c1.389.033,2.778.22,4.169.257a24.9,24.9,0,0,0,4.516-.081,7.632,7.632,0,0,0,1.915-.551C301.507,268.841,300.445,268.781,299.4,268.753Z" transform="translate(-291.951 -268.49)" fill="#57cbff"/>
      </g>
    </g>
    <g id="Group_1015" data-name="Group 1015" transform="translate(51.828 205.954)">
      <g id="Group_1012" data-name="Group 1012" transform="translate(14.126 33.259)">
        <path id="Path_393" data-name="Path 393" d="M82.135,384V378.2H80.944v-.655h3.1v.655H82.855V384Z" transform="translate(-80.944 -377.479)" fill="#fff"/>
        <path id="Path_394" data-name="Path 394" d="M94.752,377.544c1.015,0,1.44.517,1.44,1.477v.526c0,.711-.249,1.154-.8,1.329.591.175.813.655.813,1.347v1.006a1.619,1.619,0,0,0,.129.775H95.6a1.693,1.693,0,0,1-.12-.784v-1.015c0-.73-.342-.96-.942-.96h-.507V384h-.72v-6.461Zm-.185,3.046c.572,0,.914-.184.914-.886v-.619c0-.581-.212-.886-.748-.886h-.7v2.39Z" transform="translate(-87.312 -377.479)" fill="#fff"/>
        <path id="Path_395" data-name="Path 395" d="M106.41,382.482c0,.582.23.932.757.932s.748-.351.748-.932v-4.938h.674v4.9c0,.979-.453,1.634-1.449,1.634s-1.44-.655-1.44-1.634v-4.9h.711Z" transform="translate(-93.689 -377.479)" fill="#fff"/>
        <path id="Path_396" data-name="Path 396" d="M118.744,384V378.2h-1.191v-.655h3.1v.655h-1.191V384Z" transform="translate(-99.792 -377.479)" fill="#fff"/>
        <path id="Path_397" data-name="Path 397" d="M130.641,381.1V384h-.72v-6.461h.72v2.908h1.587v-2.908h.72V384h-.72V381.1Z" transform="translate(-106.16 -377.479)" fill="#fff"/>
        <path id="Path_398" data-name="Path 398" d="M151.248,377.544V384h-.72v-6.461Z" transform="translate(-116.769 -377.479)" fill="#fff"/>
        <path id="Path_399" data-name="Path 399" d="M161.17,379.026v.176h-.683v-.212c0-.582-.222-.923-.738-.923s-.738.341-.738.914c0,1.449,2.169,1.587,2.169,3.406,0,.979-.471,1.616-1.458,1.616s-1.449-.637-1.449-1.616v-.369h.674v.406c0,.582.24.923.756.923s.757-.342.757-.923c0-1.44-2.159-1.578-2.159-3.4,0-1,.461-1.615,1.431-1.615S161.17,378.048,161.17,379.026Z" transform="translate(-120.756 -377.411)" fill="#fff"/>
        <path id="Path_400" data-name="Path 400" d="M179.08,384V378.2h-1.191v-.655h3.1v.655H179.8V384Z" transform="translate(-130.856 -377.479)" fill="#fff"/>
        <path id="Path_401" data-name="Path 401" d="M190.977,381.1V384h-.72v-6.461h.72v2.908h1.587v-2.908h.72V384h-.72V381.1Z" transform="translate(-137.224 -377.479)" fill="#fff"/>
        <path id="Path_402" data-name="Path 402" d="M205.266,380.405v.646h-1.579v2.3h1.939V384h-2.659v-6.461h2.659v.655h-1.939v2.206Z" transform="translate(-143.768 -377.479)" fill="#fff"/>
        <path id="Path_403" data-name="Path 403" d="M225.454,379.035v.554h-.683V379c0-.581-.231-.932-.757-.932s-.757.351-.757.932v3.415c0,.582.24.932.757.932s.757-.351.757-.932v-1.292h-.665v-.646h1.347v1.9c0,.979-.461,1.625-1.458,1.625s-1.449-.646-1.449-1.625v-3.341c0-.978.461-1.624,1.449-1.624S225.454,378.057,225.454,379.035Z" transform="translate(-153.848 -377.411)" fill="#fff"/>
        <path id="Path_404" data-name="Path 404" d="M236.335,377.544c1.015,0,1.44.517,1.44,1.477v.526c0,.711-.249,1.154-.8,1.329.59.175.812.655.812,1.347v1.006a1.619,1.619,0,0,0,.129.775h-.729a1.693,1.693,0,0,1-.12-.784v-1.015c0-.73-.342-.96-.941-.96h-.508V384H234.9v-6.461Zm-.184,3.046c.572,0,.914-.184.914-.886v-.619c0-.581-.212-.886-.748-.886h-.7v2.39Z" transform="translate(-160.206 -377.479)" fill="#fff"/>
        <path id="Path_405" data-name="Path 405" d="M249.638,380.405v.646H248.06v2.3H250V384H247.34v-6.461H250v.655H248.06v2.206Z" transform="translate(-166.613 -377.479)" fill="#fff"/>
        <path id="Path_406" data-name="Path 406" d="M259.67,382.7l-.249,1.3h-.665l1.237-6.461h1.043L262.272,384h-.72l-.249-1.3Zm.093-.619H261.2l-.729-3.729Z" transform="translate(-172.49 -377.479)" fill="#fff"/>
        <path id="Path_407" data-name="Path 407" d="M272.791,384V378.2H271.6v-.655h3.1v.655h-1.191V384Z" transform="translate(-179.103 -377.479)" fill="#fff"/>
        <path id="Path_408" data-name="Path 408" d="M286.266,380.405v.646h-1.579v2.3h1.939V384h-2.658v-6.461h2.658v.655h-1.939v2.206Z" transform="translate(-185.471 -377.479)" fill="#fff"/>
        <path id="Path_409" data-name="Path 409" d="M297.2,377.544c1.015,0,1.44.517,1.44,1.477v.526c0,.711-.249,1.154-.8,1.329.59.175.812.655.812,1.347v1.006a1.619,1.619,0,0,0,.129.775h-.729a1.693,1.693,0,0,1-.12-.784v-1.015c0-.73-.341-.96-.941-.96h-.508V384h-.72v-6.461Zm-.184,3.046c.572,0,.914-.184.914-.886v-.619c0-.581-.212-.886-.748-.886h-.7v2.39Z" transform="translate(-191.544 -377.479)" fill="#fff"/>
        <path id="Path_410" data-name="Path 410" d="M318.476,384h-.692l-1.07-5.141V384h-.628v-6.461h1.006l1.061,5.16,1.025-5.16h1.006V384H319.5v-5.2Z" transform="translate(-202.007 -377.479)" fill="#fff"/>
        <path id="Path_411" data-name="Path 411" d="M330.889,379.035c0-.987.49-1.624,1.477-1.624s1.486.637,1.486,1.624v3.341c0,.979-.489,1.625-1.486,1.625s-1.477-.646-1.477-1.625Zm.711,3.378c0,.591.249.932.766.932s.766-.342.766-.932V379c0-.581-.24-.932-.766-.932s-.766.351-.766.932Z" transform="translate(-209.628 -377.411)" fill="#fff"/>
        <path id="Path_412" data-name="Path 412" d="M344.03,384V378.2h-1.191v-.655h3.1v.655H344.75V384Z" transform="translate(-215.781 -377.479)" fill="#fff"/>
        <path id="Path_413" data-name="Path 413" d="M355.926,377.544V384h-.719v-6.461Z" transform="translate(-222.148 -377.479)" fill="#fff"/>
        <path id="Path_414" data-name="Path 414" d="M363.508,377.544l1.052,5.621,1.043-5.621h.664L365.059,384H364l-1.218-6.461Z" transform="translate(-226.047 -377.479)" fill="#fff"/>
        <path id="Path_415" data-name="Path 415" d="M376.118,382.7l-.249,1.3H375.2l1.237-6.461h1.043L378.721,384H378l-.249-1.3Zm.092-.619h1.44l-.729-3.729Z" transform="translate(-232.444 -377.479)" fill="#fff"/>
        <path id="Path_416" data-name="Path 416" d="M389.239,384V378.2h-1.191v-.655h3.1v.655h-1.191V384Z" transform="translate(-239.056 -377.479)" fill="#fff"/>
        <path id="Path_417" data-name="Path 417" d="M400.3,379.035c0-.987.489-1.624,1.477-1.624s1.486.637,1.486,1.624v3.341c0,.979-.489,1.625-1.486,1.625s-1.477-.646-1.477-1.625Zm.711,3.378c0,.591.249.932.766.932s.766-.342.766-.932V379c0-.581-.24-.932-.766-.932s-.766.351-.766.932Z" transform="translate(-245.365 -377.411)" fill="#fff"/>
        <path id="Path_418" data-name="Path 418" d="M414.2,377.544c1.015,0,1.44.517,1.44,1.477v.526c0,.711-.249,1.154-.8,1.329.591.175.813.655.813,1.347v1.006a1.619,1.619,0,0,0,.129.775h-.729a1.692,1.692,0,0,1-.12-.784v-1.015c0-.73-.341-.96-.941-.96h-.508V384h-.72v-6.461Zm-.185,3.046c.572,0,.914-.184.914-.886v-.619c0-.581-.212-.886-.747-.886h-.7v2.39Z" transform="translate(-251.782 -377.479)" fill="#fff"/>
      </g>
      <rect id="Rectangle_1123" data-name="Rectangle 1123" width="4.05" height="3.823" rx="0.513" transform="translate(68.678)" fill="url(#linear-gradient-7)"/>
      <g id="Group_1013" data-name="Group 1013" transform="translate(126.489 0.879)">
        <path id="Path_419" data-name="Path 419" d="M341.05,310.67h-.7a.8.8,0,0,0-.769.586l-5.626,20.278-5.376-20.27a.8.8,0,0,0-.772-.594h-1.143a.8.8,0,0,0-.772.6l-5.351,20.3-5.634-20.31a.8.8,0,0,0-.769-.586h-.785a.8.8,0,0,0-.768,1.018l6.243,21.894a.8.8,0,0,0,.768.58h1.8a.8.8,0,0,0,.77-.588l5.043-18.469h0l5.039,18.468a.8.8,0,0,0,.77.589h1.8a.8.8,0,0,0,.768-.58l6.243-21.894A.8.8,0,0,0,341.05,310.67Z" transform="translate(-312.549 -310.67)" fill="url(#linear-gradient-8)"/>
        <path id="Path_420" data-name="Path 420" d="M330.007,330.9l5.313-20.16a.8.8,0,0,0-.552.562L329.8,330.153Z" transform="translate(-321.431 -310.706)" fill="url(#linear-gradient-9)"/>
        <path id="Path_421" data-name="Path 421" d="M321.976,333.489h-1.8a.8.8,0,0,1-.768-.58l-6.243-21.894a.775.775,0,0,1-.023-.289.8.8,0,0,0-.566.991l6.243,21.894a.8.8,0,0,0,.768.58h1.8a.8.8,0,0,0,.77-.588l.04-.147A.805.805,0,0,1,321.976,333.489Z" transform="translate(-312.549 -310.699)" fill="url(#linear-gradient-10)"/>
        <path id="Path_422" data-name="Path 422" d="M357.671,330.868l5.584-20.128a.8.8,0,0,0-.547.551l-5.229,18.851Z" transform="translate(-335.681 -310.706)" fill="url(#linear-gradient-11)"/>
        <path id="Path_423" data-name="Path 423" d="M351.155,337.423h-1.8a.8.8,0,0,1-.77-.589l-5.039-18.468h0l-.389,1.425L348,337.536a.8.8,0,0,0,.77.589h1.8a.8.8,0,0,0,.768-.58l.045-.156A.8.8,0,0,1,351.155,337.423Z" transform="translate(-328.309 -314.632)" fill="url(#linear-gradient-12)"/>
      </g>
      <path id="Path_424" data-name="Path 424" d="M107.01,332.495H94.474a.266.266,0,0,0-.245.36,5.208,5.208,0,0,0,1.689,2.3,4.785,4.785,0,0,0,2.94.9,4.254,4.254,0,0,0,2.263-.558,4.418,4.418,0,0,0,1.458-1.532.258.258,0,0,1,.219-.127h3.753a.266.266,0,0,1,.245.358,9.046,9.046,0,0,1-.792,1.63,9.927,9.927,0,0,1-1.9,2.126,8.355,8.355,0,0,1-2.412,1.43,8.582,8.582,0,0,1-3.06.5,8.236,8.236,0,0,1-6.8-3.241,9.518,9.518,0,0,1-2.01-6.041A9.919,9.919,0,0,1,91,325.836a8.393,8.393,0,0,1,3.267-3.395,9,9,0,0,1,4.563-1.2,8.69,8.69,0,0,1,4.406,1.155,8,8,0,0,1,3.127,3.257,9.461,9.461,0,0,1,1.116,4.5,11.049,11.049,0,0,1-.21,2.128A.264.264,0,0,1,107.01,332.495ZM103,329.131a.266.266,0,0,0,.258-.323,4.9,4.9,0,0,0-1.525-2.7,4.868,4.868,0,0,0-5.367-.443,5.02,5.02,0,0,0-1.675,1.674,6.144,6.144,0,0,0-.62,1.451.265.265,0,0,0,.252.339Z" transform="translate(-71.389 -315.233)" fill="url(#linear-gradient-13)"/>
      <path id="Path_425" data-name="Path 425" d="M210.7,339.189V322.324a.261.261,0,0,1,.261-.261h3.23a.261.261,0,0,1,.261.261v1.253a7.642,7.642,0,0,1,2.2-1.6,5.893,5.893,0,0,1,2.464-.5,6.461,6.461,0,0,1,3.231.841,6.785,6.785,0,0,1,2.323,2.064,6.113,6.113,0,0,1,.893,2.355,21.4,21.4,0,0,1,.179,3.319v9.129a.261.261,0,0,1-.261.261h-3.543a.261.261,0,0,1-.261-.261v-8.318a13.493,13.493,0,0,0-.312-3.44,2.936,2.936,0,0,0-1.087-1.606,3.125,3.125,0,0,0-1.846-.535,3.516,3.516,0,0,0-2.077.635,3.232,3.232,0,0,0-1.242,1.674,12.442,12.442,0,0,0-.358,3.578v8.012a.261.261,0,0,1-.261.261h-3.528A.261.261,0,0,1,210.7,339.189Z" transform="translate(-133.624 -315.357)" fill="url(#linear-gradient-14)"/>
      <path id="Path_426" data-name="Path 426" d="M267.476,310.995v22.661a.261.261,0,0,1-.261.261h-3.2a.261.261,0,0,1-.261-.261v-1.864h-.06a5.728,5.728,0,0,1-2.225,1.98,6.959,6.959,0,0,1-3.208.711,8.056,8.056,0,0,1-6.045-2.683,9.189,9.189,0,0,1-2.546-6.568,9.18,9.18,0,0,1,5-8.411,8.471,8.471,0,0,1,3.766-.872,6.673,6.673,0,0,1,2.814.543,6.956,6.956,0,0,1,1.737,1.159.264.264,0,0,0,.436-.2v-6.455a.261.261,0,0,1,.26-.261h3.529A.26.26,0,0,1,267.476,310.995ZM253.72,325.078a6.118,6.118,0,0,0,.663,2.806,4.977,4.977,0,0,0,1.861,2.042,4.709,4.709,0,0,0,2.494.734,4.629,4.629,0,0,0,2.456-.711,5.031,5.031,0,0,0,1.846-2.034,5.861,5.861,0,0,0,.685-2.73,5.746,5.746,0,0,0-.685-2.7,5.041,5.041,0,0,0-1.853-2.018,4.571,4.571,0,0,0-4.943.03,5.144,5.144,0,0,0-1.853,2.035A5.5,5.5,0,0,0,253.72,325.078Z" transform="translate(-153.687 -309.824)" fill="url(#linear-gradient-15)"/>
      <path id="Path_427" data-name="Path 427" d="M378.362,311.026a.261.261,0,0,1,.261-.261h1.622a.261.261,0,0,1,.261.261v7.966l.327-.412a5.849,5.849,0,0,1,4.869-2.232,6.822,6.822,0,0,1,5.389,2.187,8.869,8.869,0,0,1,1.936,6.086v9.052a.261.261,0,0,1-.261.261h-1.623a.261.261,0,0,1-.261-.261v-9.113a6.962,6.962,0,0,0-1.369-4.573,4.445,4.445,0,0,0-1-.9,4.577,4.577,0,0,0-1.519-.622,5.576,5.576,0,0,0-1.29-.131,5.1,5.1,0,0,0-2.929.816,4.343,4.343,0,0,0-.92.859,7.457,7.457,0,0,0-1.347,4.779v8.884a.261.261,0,0,1-.261.261h-1.622a.261.261,0,0,1-.261-.261Z" transform="translate(-219.944 -309.84)" fill="url(#linear-gradient-16)"/>
      <path id="Path_428" data-name="Path 428" d="M422.027,346.253a.26.26,0,0,1-.24.159h-1.919l2.855-6.857v-.009l-6.465-16.362h2.15a.262.262,0,0,1,.244.168l5.169,13.533h.01l5.573-13.54a.261.261,0,0,1,.241-.162h2.1Z" transform="translate(-239.455 -316.233)" fill="url(#linear-gradient-17)"/>
      <path id="Path_429" data-name="Path 429" d="M65.551,312.269a6.417,6.417,0,0,0-2.108-1.4,11.613,11.613,0,0,0-4.4-.713H52.627a.8.8,0,0,0-.8.8v21.91a.8.8,0,0,0,.8.8h2.761a.8.8,0,0,0,.8-.8v-8.2h.062l5.979,8.649a.8.8,0,0,0,.657.344h3.273a.8.8,0,0,0,.643-1.273l-4.757-6.454a.8.8,0,0,1,.413-1.238,9.858,9.858,0,0,0,1.343-.525,7.048,7.048,0,0,0,1.923-1.4,7.147,7.147,0,0,0,1.481-2.288,7.507,7.507,0,0,0,.582-2.946,7.064,7.064,0,0,0-.76-3.256A7.64,7.64,0,0,0,65.551,312.269Zm-2.9,7.435a3.039,3.039,0,0,1-1.3,1.209,5.563,5.563,0,0,1-2.372.5H56.984a.8.8,0,0,1-.8-.8v-5.582a.8.8,0,0,1,.8-.8h1.993a5.307,5.307,0,0,1,2.31.419,3.207,3.207,0,0,1,1.365,1.287,3.66,3.66,0,0,1,.511,1.892A3.525,3.525,0,0,1,62.652,319.7Z" transform="translate(-51.828 -309.524)" fill="url(#linear-gradient-18)"/>
      <path id="Path_430" data-name="Path 430" d="M67.8,323.686a3.144,3.144,0,0,0,.971-1.023,3.528,3.528,0,0,0,.512-1.877,3.661,3.661,0,0,0-.512-1.892,3.208,3.208,0,0,0-1.364-1.287,5.31,5.31,0,0,0-2.311-.419H63.106a.8.8,0,0,0-.785.671c.022,0,.043-.006.065-.006h1.993a5.308,5.308,0,0,1,2.31.419,3.206,3.206,0,0,1,1.365,1.287,3.66,3.66,0,0,1,.511,1.892,3.525,3.525,0,0,1-.511,1.876A3.617,3.617,0,0,1,67.8,323.686Z" transform="translate(-57.23 -313.147)" fill="url(#linear-gradient-19)"/>
      <path id="Path_431" data-name="Path 431" d="M77.184,336.04c.034-.034.066-.071.1-.106a6.661,6.661,0,0,1-1.3.846,9.851,9.851,0,0,1-1.343.524.8.8,0,0,0-.547.606,9.609,9.609,0,0,0,1.17-.467A7.048,7.048,0,0,0,77.184,336.04Z" transform="translate(-63.291 -322.798)" fill="url(#linear-gradient-20)"/>
      <path id="Path_432" data-name="Path 432" d="M56.107,332.989h-2.76a.8.8,0,0,1-.8-.8l.013-22.038a.815.815,0,0,0-.52.252.789.789,0,0,0-.213.54v21.91a.8.8,0,0,0,.8.8h2.76a.8.8,0,0,0,.786-.671C56.151,332.984,56.129,332.989,56.107,332.989Z" transform="translate(-51.828 -309.524)" fill="url(#linear-gradient-21)"/>
      <path id="Path_433" data-name="Path 433" d="M72.266,347.693H68.993a.8.8,0,0,1-.657-.344l-5.98-8.649h-.062v1.616l5.322,7.7a.8.8,0,0,0,.657.344h3.273a.8.8,0,0,0,.787-.669C72.31,347.69,72.289,347.693,72.266,347.693Z" transform="translate(-57.216 -324.221)" fill="url(#linear-gradient-22)"/>
      <path id="Path_434" data-name="Path 434" d="M157.1,310.563h-4.666a.8.8,0,0,0-.754.536l-6,17.25H145.6L139.539,311.1a.8.8,0,0,0-.753-.534h-4.668a.8.8,0,0,0-.8.8v21.91a.8.8,0,0,0,.8.8h2.76a.8.8,0,0,0,.8-.8V316.44h.062l5.847,17.09a.8.8,0,0,0,.756.54h2.532a.8.8,0,0,0,.756-.541l5.816-17.089h.093v16.832a.8.8,0,0,0,.8.8h2.76a.8.8,0,0,0,.8-.8v-21.91A.8.8,0,0,0,157.1,310.563Z" transform="translate(-93.784 -309.736)" fill="url(#linear-gradient-18)"/>
      <path id="Path_435" data-name="Path 435" d="M159.9,327.691h.078l5.954-17.115a.8.8,0,0,0-.674.53l-5.564,16Z" transform="translate(-107.361 -309.742)" fill="url(#linear-gradient-24)"/>
      <path id="Path_436" data-name="Path 436" d="M137.6,333.414h-2.76a.8.8,0,0,1-.8-.8v-21.91a.791.791,0,0,1,.013-.128.8.8,0,0,0-.733.792v21.91a.8.8,0,0,0,.8.8h2.76a.8.8,0,0,0,.786-.671C137.642,333.409,137.62,333.414,137.6,333.414Z" transform="translate(-93.784 -309.743)" fill="url(#linear-gradient-21)"/>
      <path id="Path_437" data-name="Path 437" d="M152.982,338.938H150.45a.8.8,0,0,1-.755-.54l-5.847-17.09h-.062V323.9l5.189,15.167a.8.8,0,0,0,.756.54h2.532a.8.8,0,0,0,.756-.541l.044-.129A.716.716,0,0,1,152.982,338.938Z" transform="translate(-99.172 -315.268)" fill="url(#linear-gradient-26)"/>
      <path id="Path_438" data-name="Path 438" d="M192.884,338.971c0,.33.358.6.8.6h2.76c.441,0,.8-.268.8-.6v-16.42c0-.331-.358-.6-.8-.6h-2.76c-.441,0-.8.268-.8.6" transform="translate(-124.451 -315.599)" fill="url(#linear-gradient-27)"/>
      <path id="Path_439" data-name="Path 439" d="M192.877,338.961c0,.33.358.6.8.6h2.76a.762.762,0,0,0,.785-.5c-.022,0-.043,0-.066,0H194.4c-.441,0-.8-.268-.8-.6v-16.42a.453.453,0,0,1,.013-.1c-.41.025-.733.28-.733.593" transform="translate(-124.447 -315.597)" fill="url(#linear-gradient-21)"/>
      <path id="Path_440" data-name="Path 440" d="M284.886,310.7l.734.005-.006,1.079L285.6,333.6a.293.293,0,0,1-.065.222.305.305,0,0,1-.351.061Q285.036,322.291,284.886,310.7Z" transform="translate(-171.818 -309.808)" fill="url(#linear-gradient-29)"/>
      <path id="Path_441" data-name="Path 441" d="M378.622,333.541a.983.983,0,0,1-.7-.29.909.909,0,0,1-.126-.677c.19-1.4,0-6.079,0-21.525,0-.022,0-.044.007-.066a.782.782,0,0,0-.579.756v21.525a.78.78,0,0,0,.776.785q.742-.014,1.5-.007l.161,0a.266.266,0,0,0,.194-.086.309.309,0,0,0,.066-.179,1.26,1.26,0,0,0,0-.375A3.005,3.005,0,0,1,378.622,333.541Z" transform="translate(-219.359 -309.952)" fill="url(#linear-gradient-30)"/>
      <path id="Path_442" data-name="Path 442" d="M436.941,323.177l-9.859,23.231.446,0,9.786-23.233Z" transform="translate(-245.027 -316.23)" fill="url(#linear-gradient-30)"/>
      <path id="Path_443" data-name="Path 443" d="M426.39,336.211l-1.979-5.132c-.019-.057-.039-.115-.057-.171l-.15-.366-2.5-6.494a1.217,1.217,0,0,0-.69-.819.911.911,0,0,0-.319-.045.434.434,0,0,1,.151.09.446.446,0,0,1,.111.168l5.145,13.492Z" transform="translate(-241.736 -316.233)" fill="url(#linear-gradient-32)"/>
      <path id="Path_444" data-name="Path 444" d="M400.343,342.1a.278.278,0,0,1-.19-.034c-.164-.107-.133-.416-.128-.488.031-.419.021-4.044,0-9.132,0,0,.131-4.9-3.9-5.815,0,0,4.068-.205,4.286,5.708Q400.375,337.223,400.343,342.1Z" transform="translate(-229.087 -318.01)" fill="url(#linear-gradient-30)"/>
      <path id="Path_445" data-name="Path 445" d="M97.328,340.745a9.854,9.854,0,0,1-2.664-17.718A8.4,8.4,0,0,0,92,324.754a9.383,9.383,0,0,0-2.637,6.779,9.758,9.758,0,0,0,5.892,8.751A7.64,7.64,0,0,0,97.328,340.745Z" transform="translate(-71.153 -316.153)" fill="url(#linear-gradient-34)"/>
      <path id="Path_446" data-name="Path 446" d="M230.426,333.957c0-.013,0-.026,0-.038l-.019-1.146a3.908,3.908,0,0,0-1.741-3.022,3.182,3.182,0,0,0-1.442-.393,3.606,3.606,0,0,1,1.649,1.045,4.271,4.271,0,0,1,1.083,2.249c0,.026.005.091.013.189.015.217.031.388.037.456l0,.029c.054.548.074,2.472.074,2.472.008.793.022,1.019.016,1.734,0,.265-.006.461-.007.512-.011.583-.011,1.935.029,5.056h0v.209a.114.114,0,0,0,0,.059c.027.082.144.114.2.129a.584.584,0,0,0,.265.007C230.569,340.062,230.5,336.921,230.426,333.957Z" transform="translate(-142.13 -319.411)" fill="url(#linear-gradient-35)"/>
      <path id="Path_447" data-name="Path 447" d="M112.617,333.156A4.624,4.624,0,0,0,111,330.08a4.355,4.355,0,0,0-3.013-.955c.061.008.141.026.21.037A6.367,6.367,0,0,1,112.617,333.156Z" transform="translate(-80.739 -319.287)" fill="url(#linear-gradient-36)"/>
      <g id="Group_1014" data-name="Group 1014" transform="translate(99.88 9.77)">
        <path id="Path_448" data-name="Path 448" d="M262.857,340.223a4.825,4.825,0,0,1-2.537-.736,5.218,5.218,0,0,1-1.914-2.082,5.932,5.932,0,0,1-.7-2.774,6.054,6.054,0,0,1,.7-2.8,5.216,5.216,0,0,1,1.907-2.1,4.789,4.789,0,0,1,5.126.022,5.153,5.153,0,0,1,1.923,2.109,6.3,6.3,0,0,1,.68,2.876,5.689,5.689,0,0,1-.688,2.622,5.329,5.329,0,0,1-1.912,2.1A4.814,4.814,0,0,1,262.857,340.223Zm0-10.822a4.416,4.416,0,0,0-2.332.675,4.816,4.816,0,0,0-1.757,1.939,5.64,5.64,0,0,0-.657,2.615,5.532,5.532,0,0,0,.656,2.584,4.818,4.818,0,0,0,1.765,1.923,4.346,4.346,0,0,0,4.691-.029,4.914,4.914,0,0,0,1.767-1.94,5.278,5.278,0,0,0,.642-2.434,5.9,5.9,0,0,0-.636-2.692,4.768,4.768,0,0,0-1.772-1.946A4.494,4.494,0,0,0,262.857,329.4Z" transform="translate(-257.702 -328.996)" fill="url(#linear-gradient-37)"/>
      </g>
      <path id="Path_449" data-name="Path 449" d="M211.629,363.686" transform="translate(-134.102 -337.086)" fill="#fff"/>
      <path id="Path_450" data-name="Path 450" d="M214.733,339.445h0l-2.629.006a.743.743,0,0,1-.743-.743v-.256q-.028-7.816-.056-15.633a.138.138,0,0,0-.138-.137h-.34a.138.138,0,0,0-.138.137v17.111a.138.138,0,0,0,.138.137H214c.044,0,.294.009.487,0a.245.245,0,0,0,.13-.036.273.273,0,0,0,.129-.218v0l0-.364Z" transform="translate(-133.619 -315.974)" fill="url(#linear-gradient-38)"/>
    </g>
  </g>
</svg>
